<svg id="Mercer" xmlns="http://www.w3.org/2000/svg" viewBox="0 0 473.89 73.8"><defs><style>.cls-1{fill:#002c77;}</style></defs><path class="cls-1" d="M157.17,69.88V4.14H170l22.67,35.3,22.92-35.3H228V69.88H216.08V22.31L192.55,58.73,169.11,22.4V69.88Z"/><path class="cls-1" d="M266.37,71.44a33,33,0,0,1-14.44-3,23.15,23.15,0,0,1-10-8.91q-3.63-5.88-3.63-14.44a28.55,28.55,0,0,1,3.24-13.84,24.21,24.21,0,0,1,8.95-9.39,25,25,0,0,1,13.06-3.41,23.72,23.72,0,0,1,12.24,3.07,20.73,20.73,0,0,1,8.09,8.6,28,28,0,0,1,2.86,13c0,.69,0,1.37-.09,2s-.14,1.66-.26,3H249.76a15,15,0,0,0,5.54,9.73q4.5,3.49,12.11,3.5a29.22,29.22,0,0,0,17.82-6V65.56a33.79,33.79,0,0,1-8.87,4.28A32.3,32.3,0,0,1,266.37,71.44Zm-3.29-44a12.22,12.22,0,0,0-9,3.42q-3.47,3.42-4.33,9.56h25.95a9.91,9.91,0,0,0-.17-2,13.31,13.31,0,0,0-4.06-8.18A12.31,12.31,0,0,0,263.08,27.41Z"/><path class="cls-1" d="M297.25,69.88V20h11.16l.09,10.38a18,18,0,0,1,6.05-8.13,15,15,0,0,1,9.17-3,25.23,25.23,0,0,1,3.29.25,14.23,14.23,0,0,1,3,.7V31.3a31.73,31.73,0,0,0-7.79-1.12c-4.32,0-7.63,1.4-9.9,4.2s-3.42,6.84-3.42,12.15V69.88Z"/><path class="cls-1" d="M361,71.44a29.28,29.28,0,0,1-14-3.2,22.2,22.2,0,0,1-9.21-9.13,28.44,28.44,0,0,1-3.24-13.88,28.51,28.51,0,0,1,3.33-14,23.93,23.93,0,0,1,9.25-9.39,27.21,27.21,0,0,1,13.71-3.37,25.51,25.51,0,0,1,7.18.95,48.18,48.18,0,0,1,6.23,2.25V32.43a25.27,25.27,0,0,0-12.54-3.55q-7,0-11.2,4.28t-4.2,11.64q0,7.7,4.2,12t11.63,4.28a22.54,22.54,0,0,0,5.8-.73A44.65,44.65,0,0,0,374.2,58v10.3a31.58,31.58,0,0,1-6.1,2.25A28.61,28.61,0,0,1,361,71.44Z"/><path class="cls-1" d="M409.23,71.44a32.94,32.94,0,0,1-14.44-3,23.15,23.15,0,0,1-10-8.91q-3.63-5.88-3.63-14.44a28.55,28.55,0,0,1,3.24-13.84,24.21,24.21,0,0,1,8.95-9.39,25,25,0,0,1,13.06-3.41,23.72,23.72,0,0,1,12.24,3.07,20.73,20.73,0,0,1,8.09,8.6,28,28,0,0,1,2.86,13c0,.69,0,1.37-.09,2s-.15,1.66-.26,3H392.62a15,15,0,0,0,5.54,9.73q4.5,3.49,12.11,3.5a29.22,29.22,0,0,0,17.82-6V65.56a33.79,33.79,0,0,1-8.87,4.28A32.3,32.3,0,0,1,409.23,71.44Zm-3.29-44a12.22,12.22,0,0,0-9,3.42q-3.46,3.42-4.33,9.56h25.95a9.91,9.91,0,0,0-.17-2,13.27,13.27,0,0,0-4.07-8.18A12.26,12.26,0,0,0,405.94,27.41Z"/><path class="cls-1" d="M441.11,69.88V20h11.16l.09,10.38a18,18,0,0,1,6.05-8.13,15,15,0,0,1,9.17-3,25.23,25.23,0,0,1,3.29.25,14.26,14.26,0,0,1,3,.7V31.3a26.81,26.81,0,0,0-3.63-.77,27.53,27.53,0,0,0-4.15-.35q-6.5,0-9.9,4.2t-3.42,12.15V69.88Z"/><path class="cls-1" d="M120.93,15.94,94.65.8a7.46,7.46,0,0,0-6.73,0L15.4,42.57,55.53,11.83,36.38.8a7.46,7.46,0,0,0-6.73,0L3.36,15.94A7.46,7.46,0,0,0,0,21.76V52a7.46,7.46,0,0,0,3.36,5.82L29.65,73a7.46,7.46,0,0,0,6.73,0L108.9,31.23,68.77,62,87.92,73a7.46,7.46,0,0,0,6.73,0l26.28-15.14A7.47,7.47,0,0,0,124.3,52V21.77A7.47,7.47,0,0,0,120.93,15.94Z"/></svg>