<svg width="66" height="64" viewBox="0 0 66 64" fill="none" xmlns="http://www.w3.org/2000/svg">
<path d="M31.2186 1.49072C31.9609 0.036217 34.0391 0.0362176 34.7814 1.49072L43.629 18.8276C43.9196 19.397 44.4649 19.7932 45.0963 19.8937L64.3187 22.9508C65.9314 23.2073 66.5736 25.1839 65.4197 26.3393L51.6654 40.1113C51.2136 40.5636 51.0053 41.2047 51.105 41.8362L54.1375 61.0625C54.3919 62.6755 52.7105 63.8971 51.2551 63.1567L33.9068 54.3313C33.337 54.0414 32.663 54.0415 32.0932 54.3313L14.7449 63.1567C13.2895 63.8971 11.6081 62.6755 11.8625 61.0625L14.895 41.8362C14.9947 41.2047 14.7864 40.5636 14.3346 40.1113L0.580287 26.3393C-0.573649 25.1839 0.0685818 23.2073 1.68127 22.9508L20.9037 19.8937C21.5351 19.7932 22.0804 19.397 22.371 18.8276L31.2186 1.49072Z" fill="#FB9826"/>
</svg>
